<svg width="180" height="180" viewBox="0 0 180 180" fill="none" xmlns="http://www.w3.org/2000/svg">
<rect width="180" height="180" fill="url(#paint0_radial_1223_188)"/>
<path d="M122.397 32.4329C124.746 32.4329 126.598 34.2977 126.429 36.4846C125.975 42.3583 125.213 53.4014 125.213 61.3247V119.108C125.213 127.031 125.975 138.075 126.429 143.948C126.598 146.135 124.746 148 122.397 148H118.25C116.158 148 114.418 146.508 114.265 144.56C113.819 138.871 113.001 127.316 113.001 119.108V61.3247C113.001 53.1171 113.819 41.5617 114.265 35.8725C114.418 33.9248 116.158 32.4329 118.25 32.4329H122.397Z" fill="white"/>
<path d="M45.9514 32C48.809 32.0001 50.7891 34.7181 49.8425 37.2346C47.5536 43.3193 44.2119 53.4731 44.2119 60.8919C44.2119 72.1748 51.9412 78.5008 51.9412 89.7837C51.9411 101.067 44.212 107.392 44.2119 118.675C44.2119 126.094 47.5536 136.248 49.8425 142.333C50.7891 144.849 48.809 147.567 45.9514 147.567H42.4259C40.7946 147.567 39.3282 146.649 38.755 145.224C36.6775 140.058 32 127.453 32 118.675C32.0001 107.392 39.7292 101.067 39.7293 89.7837C39.7293 78.5008 32 72.1748 32 60.8919C32 52.1146 36.6775 39.5091 38.755 34.3432C39.3282 32.9178 40.7947 32 42.4259 32H45.9514Z" fill="white"/>
<path d="M64.7896 32C67.5243 32 69.4869 34.4952 68.743 36.9514C66.9109 43.0002 64.1531 53.3568 64.1531 60.8919C64.1531 72.1748 70.3363 78.5008 70.3363 89.7837C70.3363 101.067 64.1531 107.392 64.1531 118.675C64.1531 126.21 66.9109 136.567 68.743 142.616C69.4869 145.072 67.5243 147.567 64.7896 147.567H61.0365C59.2992 147.567 57.7634 146.533 57.2664 144.979C55.5682 139.669 51.9412 127.317 51.9412 118.675C51.9412 107.392 58.1244 101.067 58.1244 89.7837C58.1244 78.5008 51.9412 72.1748 51.9412 60.8919C51.9412 52.2503 55.5682 39.8978 57.2664 34.588C57.7634 33.0341 59.2992 32 61.0365 32H64.7896Z" fill="white"/>
<path d="M80.9838 32C82.7212 32 84.2572 33.0341 84.7542 34.588C86.4524 39.8978 90.0794 52.2503 90.0794 60.8919C90.0794 72.1748 86.9877 78.5008 86.9877 89.7837C86.9877 101.067 90.0794 107.392 90.0794 118.675C90.0794 127.317 86.4524 139.669 84.7542 144.979C84.2572 146.533 82.7212 147.567 80.9838 147.567H77.2311C74.4963 147.567 72.5337 145.072 73.2776 142.616C75.1097 136.567 77.8675 126.21 77.8675 118.675C77.8675 107.392 74.7758 101.067 74.7757 89.7837C74.7757 78.5008 77.8675 72.1748 77.8675 60.8919C77.8675 53.3568 75.1097 43.0002 73.2776 36.9514C72.5337 34.4952 74.4963 32 77.2311 32H80.9838Z" fill="white"/>
<path d="M104.783 32C107.391 32 109.325 34.2807 108.781 36.6614C107.408 42.6645 105.272 53.2349 105.272 60.8919C105.272 72.1748 106.818 78.5008 106.818 89.7837C106.818 101.067 105.272 107.392 105.272 118.675C105.272 126.332 107.408 136.903 108.781 142.906C109.325 145.286 107.391 147.567 104.783 147.567H100.848C98.998 147.567 97.39 146.391 96.9882 144.705C95.6893 139.254 93.0599 127.171 93.0599 118.675C93.0599 107.392 94.6056 101.067 94.6057 89.7837C94.6057 78.5008 93.0599 72.1748 93.0599 60.8919C93.0599 52.3958 95.6893 40.3129 96.9882 34.8622C97.39 33.1766 98.998 32 100.848 32H104.783Z" fill="white"/>
<path d="M138.904 32C140.642 32 142.178 33.0341 142.675 34.588C144.373 39.8978 148 52.2503 148 60.8919C148 70.4004 145.804 76.3885 145.114 84.7898C144.925 87.0882 143.105 88.9455 140.853 88.9455H136.879C134.582 88.9455 132.715 87.0159 132.912 84.6719C133.613 76.3323 135.788 70.3559 135.788 60.8919C135.788 53.3568 133.03 43.0002 131.198 36.9514C130.454 34.4952 132.417 32.0001 135.151 32H138.904Z" fill="white"/>
<defs>
<radialGradient id="paint0_radial_1223_188" cx="0" cy="0" r="1" gradientUnits="userSpaceOnUse" gradientTransform="translate(90 90) rotate(90) scale(90)">
<stop stop-color="#595555"/>
<stop offset="1" stop-color="#2E0505"/>
</radialGradient>
</defs>
</svg>
